<svg xmlns="http://www.w3.org/2000/svg" version="1.1" xmlns:xlink="http://www.w3.org/1999/xlink" xmlns:svgjs="http://svgjs.dev/svgjs" width="1000" height="1000" viewBox="0 0 1000 1000"><rect width="1000" height="1000" fill="#ffffff"></rect><g transform="matrix(0.7,0,0,0.7,149.57575757575756,252.54999999999998)"><svg viewBox="0 0 396 280" data-background-color="#ffffff" preserveAspectRatio="xMidYMid meet" height="707" width="1000" xmlns="http://www.w3.org/2000/svg" xmlns:xlink="http://www.w3.org/1999/xlink"><g id="tight-bounds" transform="matrix(1,0,0,1,0.2400000000000091,0)"><svg viewBox="0 0 395.52 280" height="280" width="395.52"><g><svg viewBox="0 0 395.52 280" height="280" width="395.52"><g><svg viewBox="0 0 395.52 280" height="280" width="395.52"><g><svg viewBox="0 0 395.52 280" height="280" width="395.52"><g><svg viewBox="0 0 395.52 280" height="280" width="395.52"><g transform="matrix(1,0,0,1,161.55331854612052,74.00336708925556)"><svg viewBox="0 0 72.41336290775897 131.99326582148888" height="131.99326582148888" width="72.41336290775897"><g><svg xmlns="http://www.w3.org/2000/svg" xmlns:xlink="http://www.w3.org/1999/xlink" version="1.1" x="0" y="0" viewBox="31.412870407104492 15.333873748779297 37.17909240722656 67.76911926269531" enable-background="new 0 0 100 100" xml:space="preserve" height="131.99326582148888" width="72.41336290775897" class="icon-o-0" data-fill-palette-color="accent" id="o-0"><g fill="#2257bf" data-fill-palette-color="accent"><path fill="#2257bf" d="M68.081 61.6c-0.371-0.407-0.901-0.644-1.455-0.644h-4.274v-4.297c0.6-0.336 1.125-0.73 1.581-1.186 0.534-0.536 0.934-1.117 1.236-1.729l0.211 0.075c0.108 0.038 0.219 0.056 0.327 0.056 0.406 0 0.784-0.251 0.927-0.656 0.181-0.511-0.088-1.071-0.6-1.25l-0.24-0.086c0.28-1.337 0.281-2.728 0.279-4.03v-4.229l0.676-0.082c0.54-0.064 0.922-0.553 0.858-1.092-0.065-0.537-0.547-0.921-1.092-0.857l-0.442 0.052v-4.09c0-1.293-0.438-2.483-1.165-3.441 0.462-0.277 0.615-0.873 0.341-1.34-0.274-0.466-0.876-0.621-1.344-0.347l-0.512 0.3c-0.327-0.206-0.674-0.378-1.042-0.515v-3.39c0-2.243-0.609-4.342-1.658-6.156l0.301-0.182c0.468-0.28 0.617-0.883 0.34-1.348-0.281-0.465-0.884-0.614-1.349-0.335l-0.404 0.242c-1.742-2.143-4.185-3.689-6.979-4.291l0.048-0.251c0.102-0.534-0.247-1.048-0.782-1.15-0.528-0.1-1.047 0.248-1.148 0.78l-0.07 0.372c-0.218-0.011-0.432-0.032-0.651-0.032-2.377 0-4.591 0.686-6.477 1.854l-0.073-0.097c-0.325-0.434-0.941-0.52-1.375-0.196s-0.521 0.94-0.196 1.375l0.06 0.08c-1.458 1.261-2.621 2.851-3.363 4.66l-0.384-0.154c-0.502-0.202-1.075 0.044-1.276 0.546-0.203 0.504 0.044 1.077 0.547 1.278l0.519 0.208c-0.21 0.901-0.332 1.835-0.332 2.799v8.359h-0.799c-0.544 0-0.983 0.442-0.983 0.984 0 0.542 0.439 0.98 0.983 0.98h0.799v14.776h-0.311c-0.542 0-0.982 0.439-0.982 0.982 0 0.541 0.44 0.981 0.982 0.981h0.311v5.069h-4.272c-0.555 0-1.083 0.236-1.455 0.644-0.374 0.413-0.553 0.961-0.5 1.514l0.593 6.013c0.09 0.921 0.81 1.636 1.704 1.751l3.382 10.845c0.255 0.821 1.015 1.381 1.875 1.381h22.053c0.86 0 1.619-0.56 1.876-1.381l3.381-10.845c0.896-0.115 1.614-0.83 1.704-1.751l0.593-6.013C68.636 62.561 68.452 62.013 68.081 61.6zM41.576 28.823c0-4.645 3.779-8.425 8.423-8.425 4.646 0 8.426 3.78 8.426 8.425v3.375c-2.19 0.797-3.765 2.895-3.765 5.358v7.896c0 0.132 0.002 0.266 0.003 0.399 0.005 0.271 0.008 0.641-0.014 0.894-0.035 0.001-0.075 0.001-0.117 0.001-1.085 0-1.965 0.88-1.965 1.964s0.88 1.966 1.965 1.966c1.261 0 2.259-0.368 2.973-1.089 1.117-1.128 1.101-2.662 1.086-3.78 0-0.12-0.001-0.237-0.001-0.355v-7.896c0-0.98 0.799-1.778 1.777-1.778s1.775 0.797 1.775 1.778v10.306c0.006 2.057 0.009 3.834-0.993 4.837-0.996 0.998-3.126 1.505-6.335 1.505-1.085 0-1.965 0.879-1.965 1.964 0 1.084 0.88 1.965 1.965 1.965 1.345 0 2.534-0.09 3.61-0.249v3.073H41.576V28.823zM64.456 64.886l-0.204 2.086H35.749l-0.207-2.086H64.456zM59.58 79.173H40.418l-2.456-7.88h24.077L59.58 79.173z" data-fill-palette-color="accent"></path><path fill="#2257bf" d="M46.771 48.6l-1.25-0.109c-0.532-0.048-1.016 0.353-1.065 0.893-0.047 0.54 0.354 1.019 0.894 1.064l1.251 0.11c0.028 0.002 0.057 0.003 0.084 0.003 0.505 0 0.935-0.385 0.979-0.896C47.71 49.124 47.311 48.647 46.771 48.6z" data-fill-palette-color="accent"></path><path fill="#2257bf" d="M44.804 56.859l-1.197 0.11c-0.541 0.05-0.938 0.527-0.89 1.068 0.047 0.511 0.475 0.891 0.977 0.891 0.029 0 0.061 0 0.09-0.001l1.196-0.109c0.541-0.049 0.939-0.528 0.891-1.067C45.821 57.211 45.342 56.814 44.804 56.859z" data-fill-palette-color="accent"></path><path fill="#2257bf" d="M43.783 42.174l1.142 0.217c0.061 0.012 0.124 0.018 0.185 0.018 0.46 0 0.875-0.328 0.964-0.798 0.101-0.534-0.248-1.049-0.781-1.149l-1.141-0.219c-0.533-0.101-1.048 0.249-1.149 0.781C42.901 41.559 43.25 42.071 43.783 42.174z" data-fill-palette-color="accent"></path><path fill="#2257bf" d="M44.868 33.097l1.204 0.262c0.071 0.014 0.141 0.023 0.211 0.023 0.452 0 0.858-0.314 0.958-0.774 0.116-0.531-0.221-1.053-0.75-1.17l-1.205-0.262c-0.532-0.11-1.053 0.222-1.169 0.751C44.002 32.46 44.339 32.982 44.868 33.097z" data-fill-palette-color="accent"></path><path fill="#2257bf" d="M53.403 25.617l0.326-0.762c0.214-0.499-0.018-1.076-0.516-1.29s-1.076 0.016-1.29 0.516l-0.327 0.761c-0.211 0.498 0.018 1.077 0.517 1.29 0.128 0.055 0.257 0.078 0.386 0.078C52.883 26.211 53.243 25.989 53.403 25.617z" data-fill-palette-color="accent"></path><path fill="#2257bf" d="M53.316 33.548c0.188 0 0.377-0.053 0.544-0.165l0.815-0.544c0.451-0.3 0.573-0.91 0.271-1.361-0.299-0.451-0.911-0.573-1.36-0.272l-0.815 0.543c-0.451 0.302-0.572 0.91-0.273 1.362C52.688 33.396 52.999 33.548 53.316 33.548z" data-fill-palette-color="accent"></path></g></svg></g></svg></g><path d="M62.529 88.502C62.95 87.359 63.609 86.081 64.508 84.669 65.416 83.254 66.187 82.268 66.821 81.713V81.713L73.216 84.063 72.882 84.973C68.538 85.771 65.721 87.922 64.433 91.428V91.428C63.864 92.975 63.794 94.541 64.223 96.125 64.645 97.707 65.505 99.142 66.803 100.429 68.098 101.723 69.721 102.728 71.673 103.445V103.445C73.915 104.27 76.102 104.679 78.233 104.674 80.365 104.669 82.255 104.148 83.905 103.113 85.563 102.074 86.783 100.49 87.566 98.361V98.361C88.251 96.498 87.741 93.242 86.037 88.593V88.593L87.901 88.203 90.437 96.168C90.43 97.084 90.339 97.936 90.164 98.724 89.989 99.513 89.744 100.334 89.431 101.187V101.187C88.581 103.498 87.255 105.341 85.452 106.715 83.65 108.088 81.561 108.905 79.185 109.164 76.808 109.43 74.34 109.093 71.782 108.153V108.153C69.154 107.187 66.999 105.542 65.316 103.216 63.641 100.887 62.568 98.364 62.098 95.645 61.633 92.93 61.777 90.548 62.529 88.502ZM131.961 45.008L132.292 46.377 124.427 53.192 123.819 52.49 124.522 48.369 117.821 45.013 108.605 52.998 110.937 60.513 117.161 57.832 117.516 59.181 109.384 66.227 108.775 65.525 109.555 61.431 101.951 36.886 103.196 33.39 127.772 45.646ZM116.467 44.329L103.977 38.069 108.144 51.541ZM167.093 1.363C168.273 1.063 169.7 0.883 171.373 0.825 173.053 0.772 174.302 0.85 175.119 1.059V1.059L176.801 7.661 175.862 7.9C172.745 4.771 169.378 3.667 165.758 4.589V4.589C164.161 4.996 162.83 5.824 161.767 7.074 160.701 8.318 160.005 9.838 159.679 11.637 159.346 13.437 159.436 15.345 159.949 17.36V17.36C160.539 19.675 161.439 21.709 162.649 23.463 163.86 25.217 165.359 26.481 167.146 27.255 168.942 28.034 170.938 28.143 173.136 27.584V27.584C175.06 27.094 177.456 24.831 180.323 20.795V20.795L181.7 22.111 176.569 28.709C175.81 29.222 175.056 29.629 174.307 29.931 173.557 30.233 172.743 30.496 171.862 30.72V30.72C169.475 31.328 167.206 31.278 165.053 30.569 162.9 29.861 161.045 28.601 159.486 26.79 157.921 24.98 156.802 22.755 156.13 20.114V20.114C155.439 17.401 155.575 14.692 156.539 11.989 157.512 9.29 158.985 6.977 160.96 5.05 162.936 3.131 164.98 1.901 167.093 1.363ZM245.251 5.545L243.253 14.106 242.321 14.148 239.3 6.26 234.828 5.216 229.327 28.788 232.661 30.935 231.747 32.007 221.475 29.61 221.686 28.705 225.573 26.886 230.847 4.287 226.512 3.276 220.312 9.012 219.494 8.562 221.492 0 223.095 1.037 243.354 5.765ZM305.96 47.938L301.655 47.643 292.651 57.682C290.97 59.555 289.086 60.759 287 61.291 284.908 61.829 282.905 61.84 280.99 61.325 279.075 60.81 277.496 59.995 276.254 58.88V58.88C274.686 57.474 273.602 55.87 273.004 54.068 272.41 52.26 272.32 50.426 272.734 48.564 273.147 46.702 274.048 44.997 275.436 43.449V43.449L285.708 31.997 283.847 28.539 285.164 28.038 293.016 35.081 292.396 35.772 288.091 35.477 279.707 44.825C277.6 47.175 276.531 49.511 276.5 51.833 276.473 54.151 277.617 56.347 279.931 58.423V58.423C280.788 59.191 281.881 59.666 283.211 59.846 284.541 60.026 285.961 59.813 287.472 59.207 288.974 58.601 290.387 57.559 291.713 56.082V56.082L300.603 46.17 299.176 42.288 300.493 41.787 306.58 47.246ZM315.744 106.593C316.433 106.321 316.97 105.786 317.356 104.988 317.751 104.195 318.025 103.29 318.18 102.273 318.331 101.265 318.493 99.876 318.667 98.106V98.106C318.851 96.05 319.052 94.381 319.268 93.101 319.479 91.823 319.87 90.655 320.442 89.596 321.011 88.531 321.818 87.791 322.863 87.377V87.377C323.976 86.936 325.352 86.919 326.991 87.326 328.626 87.728 330.148 88.417 331.556 89.393 332.955 90.366 333.875 91.41 334.316 92.523V92.523C334.854 93.881 335.312 95.52 335.689 97.44 336.061 99.363 336.221 100.809 336.17 101.777V101.777L329.864 104.277 329.507 103.376C330.895 101.544 331.818 99.764 332.276 98.033 332.736 96.309 332.676 94.715 332.096 93.251V93.251C331.558 91.893 330.72 90.991 329.58 90.545 328.432 90.096 327.192 90.135 325.859 90.663V90.663C325.127 90.953 324.56 91.514 324.159 92.346 323.755 93.172 323.467 94.115 323.294 95.176 323.12 96.236 322.958 97.643 322.806 99.397V99.397C322.623 101.402 322.425 103.03 322.211 104.28 322 105.537 321.617 106.68 321.062 107.71 320.508 108.741 319.718 109.459 318.692 109.866V109.866C317.584 110.305 316.195 110.287 314.523 109.813 312.86 109.343 311.311 108.575 309.874 107.508 308.435 106.45 307.485 105.342 307.027 104.185V104.185C306.464 102.765 305.963 101.009 305.525 98.917 305.081 96.827 304.879 95.286 304.919 94.292V94.292L311.226 91.793 311.583 92.694C310.231 94.598 309.35 96.485 308.94 98.356 308.537 100.224 308.644 101.937 309.261 103.495V103.495C309.648 104.471 310.202 105.247 310.922 105.822 311.636 106.401 312.423 106.751 313.282 106.874 314.142 106.997 314.962 106.903 315.744 106.593ZM99.461 188.358C99.893 189.526 100.23 190.958 100.47 192.656 100.705 194.356 100.761 195.633 100.64 196.489V196.489L94.099 198.91 93.756 197.982C96.605 194.474 97.367 190.93 96.043 187.352V187.352C95.457 185.768 94.472 184.503 93.089 183.559 91.71 182.605 90.087 182.058 88.219 181.917 86.358 181.773 84.427 182.071 82.427 182.812V182.812C80.136 183.66 78.162 184.792 76.505 186.209 74.856 187.63 73.731 189.291 73.129 191.193 72.536 193.099 72.642 195.14 73.447 197.317V197.317C74.153 199.223 76.712 201.419 81.127 203.904V203.904L79.931 205.444 72.665 200.933C72.062 200.216 71.569 199.494 71.186 198.768 70.794 198.038 70.436 197.237 70.114 196.366V196.366C69.238 194 69.049 191.684 69.545 189.419 70.033 187.151 71.113 185.126 72.786 183.344 74.465 181.56 76.611 180.185 79.224 179.218V179.218C81.906 178.226 84.674 178.077 87.529 178.771 90.375 179.461 92.882 180.711 95.051 182.52 97.218 184.323 98.688 186.269 99.461 188.358ZM121.47 258.044L120.128 258.579 112.075 251.625 112.695 250.907 116.968 251.009 119.384 243.733 109.941 235.579 102.674 239.053 106.305 244.949 104.993 245.51 96.666 238.319 97.286 237.601 101.543 237.783 125.27 226.477 128.995 227.213 120.2 253.893ZM119.87 242.259L124.366 228.697 111.352 234.903ZM176.925 250.737C178.131 251.043 179.502 251.58 181.036 252.345 182.569 253.117 183.653 253.795 184.288 254.38V254.38L182.569 261.14 181.61 260.896C180.339 256.559 177.854 253.921 174.156 252.98V252.98C172.519 252.564 170.919 252.657 169.357 253.259 167.789 253.853 166.417 254.879 165.241 256.336 164.066 257.787 163.216 259.547 162.69 261.614V261.614C162.088 263.981 161.9 266.249 162.126 268.418 162.36 270.581 163.089 272.451 164.314 274.026 165.546 275.596 167.287 276.667 169.537 277.24V277.24C171.507 277.741 174.767 276.879 179.318 274.655V274.655L179.908 276.514 172.07 279.936C171.137 280.025 170.263 280.021 169.448 279.925 168.624 279.833 167.762 279.673 166.862 279.444V279.444C164.416 278.822 162.402 277.664 160.819 275.97 159.229 274.281 158.174 272.242 157.657 269.853 157.141 267.459 157.227 264.911 157.914 262.211V262.211C158.619 259.44 160.067 257.076 162.259 255.12 164.443 253.168 166.895 251.813 169.615 251.054 172.33 250.293 174.766 250.187 176.925 250.737ZM236.628 246.422L238.662 255.172 237.827 255.636 231.487 249.763 226.915 250.825 232.523 274.943 236.548 275.406 236.199 276.803 225.689 279.247 225.474 278.323 228.221 274.896 222.845 251.772 218.411 252.803 215.312 260.871 214.368 260.821 212.333 252.071 214.261 252.296 234.987 247.477ZM282.188 215.263L281.403 219.609 290.595 229.886C292.309 231.801 293.322 233.852 293.634 236.038 293.946 238.214 293.733 240.247 292.994 242.136 292.26 244.03 291.253 245.549 289.974 246.693V246.693C288.374 248.124 286.621 249.042 284.716 249.446 282.816 249.855 280.942 249.743 279.095 249.111 277.253 248.475 275.623 247.364 274.205 245.779V245.779L263.713 234.05 259.984 235.558 259.625 234.159 267.66 226.971 268.3 227.686 267.514 232.032 276.075 241.601C278.228 244.009 280.481 245.357 282.834 245.645 285.191 245.929 287.556 245.01 289.928 242.887V242.887C290.801 242.107 291.406 241.052 291.742 239.722 292.073 238.387 292.017 236.92 291.572 235.323 291.123 233.72 290.221 232.162 288.866 230.647V230.647L279.794 220.506 275.677 221.52 275.319 220.121 281.549 214.548ZM321.491 185.905C320.785 185.622 320.006 185.641 319.154 185.96 318.302 186.279 317.464 186.763 316.639 187.412 315.817 188.054 314.719 188.971 313.345 190.161V190.161C311.765 191.559 310.445 192.658 309.386 193.46 308.327 194.261 307.212 194.856 306.043 195.244 304.873 195.632 303.754 195.612 302.686 195.185V195.185C301.555 194.733 300.522 193.781 299.588 192.328 298.654 190.875 298.006 189.294 297.646 187.585 297.291 185.878 297.341 184.456 297.796 183.319V183.319C298.35 181.931 299.16 180.393 300.227 178.703 301.302 177.009 302.199 175.817 302.917 175.125V175.125L309.357 177.698 308.986 178.626C306.672 179.013 304.74 179.687 303.189 180.647 301.633 181.605 300.555 182.834 299.956 184.334V184.334C299.401 185.721 299.391 186.981 299.923 188.114 300.456 189.248 301.404 190.086 302.766 190.63V190.63C303.516 190.93 304.333 190.916 305.218 190.588 306.105 190.254 306.981 189.756 307.847 189.095 308.722 188.43 309.833 187.497 311.182 186.297V186.297C312.726 184.936 314.017 183.864 315.054 183.083 316.093 182.295 317.18 181.715 318.314 181.342 319.451 180.963 320.545 180.983 321.594 181.402V181.402C322.726 181.854 323.744 182.841 324.651 184.362 325.558 185.884 326.173 187.546 326.496 189.35 326.813 191.15 326.735 192.641 326.263 193.822V193.822C325.684 195.272 324.826 196.929 323.69 198.794 322.547 200.656 321.613 201.943 320.888 202.653V202.653L314.448 200.08 314.815 199.161C317.159 198.699 319.135 197.916 320.743 196.812 322.359 195.704 323.484 194.357 324.119 192.769V192.769C324.518 191.77 324.654 190.802 324.528 189.868 324.401 188.933 324.06 188.119 323.503 187.426 322.956 186.729 322.285 186.222 321.491 185.905ZM59.341 145.026C59.341 138.927 64.285 133.982 70.384 133.982 76.483 133.982 81.427 138.927 81.427 145.026 81.427 151.125 76.483 156.069 70.384 156.069 64.285 156.069 59.341 151.125 59.341 145.026ZM313.715 145.026C313.715 138.927 318.66 133.982 324.759 133.982 330.858 133.982 335.802 138.927 335.802 145.026 335.802 151.125 330.858 156.069 324.759 156.069 318.66 156.069 313.715 151.125 313.715 145.026Z" fill="#2257bf" data-fill-palette-color="primary"></path></svg></g></svg></g></svg></g></svg></g><defs></defs></svg><rect width="395.52" height="280" fill="none" stroke="none" visibility="hidden"></rect></g></svg></g></svg>