<svg xmlns="http://www.w3.org/2000/svg" version="1.1" xmlns:xlink="http://www.w3.org/1999/xlink" xmlns:svgjs="http://svgjs.dev/svgjs" width="1000" height="1000" viewBox="0 0 1000 1000"><rect width="1000" height="1000" fill="#ffffff"></rect><g transform="matrix(0.7,0,0,0.7,149.57575757575756,396.3004835944974)"><svg viewBox="0 0 396 118" data-background-color="#ffffff" preserveAspectRatio="xMidYMid meet" height="297" width="1000" xmlns="http://www.w3.org/2000/svg" xmlns:xlink="http://www.w3.org/1999/xlink"><g id="tight-bounds" transform="matrix(1,0,0,1,0.2400000000000091,-0.1421696207344496)"><svg viewBox="0 0 395.52 118.28424978147537" height="118.28424978147537" width="395.52"><g><svg viewBox="0 0 615.7219309592818 184.1378607340211" height="118.28424978147537" width="395.52"><g transform="matrix(1,0,0,1,220.20193095928192,53.87776499520146)"><svg viewBox="0 0 395.5199999999999 76.38233074361818" height="76.38233074361818" width="395.5199999999999"><g><svg viewBox="0 0 395.5199999999999 76.38233074361818" height="76.38233074361818" width="395.5199999999999"><g><svg viewBox="0 0 395.5199999999999 76.38233074361818" height="76.38233074361818" width="395.5199999999999"><g transform="matrix(1,0,0,1,0,0)"><svg width="395.5199999999999" viewBox="1 -33.900001525878906 180.19000244140625 34.80000305175781" height="76.38233074361818" data-palette-color="#4b91f1"><path d="M18.3 0.9L18.3 0.9Q13.45 0.9 9.53-1.07 5.6-3.05 3.3-6.95 1-10.85 1-16.5L1-16.5Q1-20.8 2.4-24.05 3.8-27.3 6.23-29.5 8.65-31.7 11.83-32.8 15-33.9 18.55-33.9L18.55-33.9Q21.4-33.9 23.8-33.25 26.2-32.6 28.3-31.45L28.3-31.45 28.5-25.3 28-25.3 25.5-29.3Q25-30.25 24.4-31.03 23.8-31.8 22.9-32.2L22.9-32.2Q22.15-32.55 21.43-32.73 20.7-32.9 19.6-32.9L19.6-32.9Q16.7-32.9 14.33-31.35 11.95-29.8 10.53-26.23 9.1-22.65 9.1-16.45L9.1-16.45Q9.1-10.3 10.45-6.73 11.8-3.15 14.13-1.63 16.45-0.1 19.35-0.1L19.35-0.1Q20.95-0.1 21.9-0.33 22.85-0.55 23.8-1L23.8-1Q24.75-1.4 25.25-2.18 25.75-2.95 26.15-3.85L26.15-3.85 28.35-8.75 28.85-8.75 28.7-1.6Q26.6-0.5 24 0.2 21.4 0.9 18.3 0.9ZM37.45 0L30.55 0 30.55-0.5 31.8-0.95Q32.8-1.35 33.35-1.93 33.9-2.5 34.25-3.55L34.25-3.55 44.55-33.1 48.8-33.1 58.95-3.35Q59.35-2.25 59.85-1.68 60.35-1.1 61.4-0.7L61.4-0.7 62-0.5 62 0 49.3 0 49.3-0.5 50.05-0.75Q51.1-1.15 51.32-1.88 51.55-2.6 51.25-3.6L51.25-3.6 48.9-10.8 37.8-10.8 35.4-3.75Q35.05-2.65 35.17-2 35.3-1.35 36.35-0.95L36.35-0.95 37.45-0.5 37.45 0ZM43.55-27.35L38.15-11.8 48.6-11.8 43.55-27.35ZM80.95 0.9L80.95 0.9Q76.09 0.9 72.17-1.07 68.25-3.05 65.95-6.95 63.65-10.85 63.65-16.5L63.65-16.5Q63.65-20.8 65.05-24.05 66.45-27.3 68.87-29.5 71.3-31.7 74.47-32.8 77.65-33.9 81.2-33.9L81.2-33.9Q84.05-33.9 86.45-33.25 88.84-32.6 90.95-31.45L90.95-31.45 91.15-25.3 90.65-25.3 88.15-29.3Q87.65-30.25 87.05-31.03 86.45-31.8 85.55-32.2L85.55-32.2Q84.8-32.55 84.07-32.73 83.34-32.9 82.25-32.9L82.25-32.9Q79.34-32.9 76.97-31.35 74.59-29.8 73.17-26.23 71.75-22.65 71.75-16.45L71.75-16.45Q71.75-10.3 73.09-6.73 74.45-3.15 76.77-1.63 79.09-0.1 82-0.1L82-0.1Q83.59-0.1 84.55-0.33 85.5-0.55 86.45-1L86.45-1Q87.4-1.4 87.9-2.18 88.4-2.95 88.8-3.85L88.8-3.85 91-8.75 91.5-8.75 91.34-1.6Q89.25-0.5 86.65 0.2 84.05 0.9 80.95 0.9ZM116.34 0L100.59 0 100.59-0.5 102.64-1Q104.69-1.45 104.69-3.5L104.69-3.5 104.69-32 100.44-32Q98.59-32 97.79-31.03 96.99-30.05 96.09-28.35L96.09-28.35 94.29-24.85 93.79-24.85 94.04-33 122.89-33 123.09-24.85 122.59-24.85 120.79-28.35Q119.94-30.05 119.14-31.03 118.34-32 116.49-32L116.49-32 112.24-32 112.24-3.5Q112.24-1.45 114.29-1L114.29-1 116.34-0.5 116.34 0ZM141.09 0.9L141.09 0.9Q137.29 0.9 134.37-0.45 131.44-1.8 129.82-4.73 128.19-7.65 128.19-12.45L128.19-12.45 128.19-29.7Q128.19-31.6 126.24-32.2L126.24-32.2 125.14-32.5 125.14-33 138.99-33 138.99-32.5 137.54-32.1Q135.69-31.65 135.69-29.6L135.69-29.6 135.69-11.15Q135.69-6.5 137.64-4.28 139.59-2.05 143.24-2.05L143.24-2.05Q147.04-2.05 149.27-4.4 151.49-6.75 151.49-11.05L151.49-11.05 151.49-29.4Q151.49-30.4 151.17-31.18 150.84-31.95 149.84-32.2L149.84-32.2 148.59-32.5 148.59-33 155.59-33 155.59-32.5 154.24-32.15Q153.29-31.95 152.99-31.2 152.69-30.45 152.69-29.45L152.69-29.45 152.69-11.15Q152.69-7.5 151.24-4.78 149.79-2.05 147.19-0.58 144.59 0.9 141.09 0.9ZM168.44 0.9L168.44 0.9Q165.69 0.9 162.84 0.23 159.99-0.45 158.09-1.55L158.09-1.55 158.34-8.35 158.84-8.35 160.39-5.1Q161.09-3.7 161.89-2.63 162.69-1.55 164.09-0.95L164.09-0.95Q165.09-0.45 166.01-0.28 166.94-0.1 168.09-0.1L168.09-0.1Q171.14-0.1 172.91-1.75 174.69-3.4 174.69-6L174.69-6Q174.69-8.45 173.49-9.83 172.29-11.2 169.64-12.5L169.64-12.5 167.59-13.4Q163.29-15.3 160.86-17.78 158.44-20.25 158.44-24.35L158.44-24.35Q158.44-27.3 159.96-29.45 161.49-31.6 164.21-32.75 166.94-33.9 170.59-33.9L170.59-33.9Q173.24-33.9 175.61-33.2 177.99-32.5 179.74-31.3L179.74-31.3 179.44-25.3 178.94-25.3 176.89-29.05Q176.04-30.8 175.19-31.53 174.34-32.25 173.24-32.55L173.24-32.55Q172.59-32.75 172.04-32.83 171.49-32.9 170.64-32.9L170.64-32.9Q168.09-32.9 166.34-31.43 164.59-29.95 164.59-27.45L164.59-27.45Q164.59-24.9 165.94-23.38 167.29-21.85 169.89-20.65L169.89-20.65 172.19-19.65Q176.99-17.55 179.09-15.18 181.19-12.8 181.19-9.05L181.19-9.05Q181.19-4.65 177.86-1.88 174.54 0.9 168.44 0.9Z" opacity="1" transform="matrix(1,0,0,1,0,0)" fill="#4b91f1" class="undefined-text-0" data-fill-palette-color="primary" id="text-0"></path></svg></g></svg></g></svg></g></svg></g><g><svg viewBox="0 0 184.1378607340211 184.1378607340211" height="184.1378607340211" width="184.1378607340211"><g><svg></svg></g><g id="icon-0"><svg viewBox="0 0 184.1378607340211 184.1378607340211" height="184.1378607340211" width="184.1378607340211"><g><path d="M0 92.069c0-50.848 41.221-92.069 92.069-92.069 50.848 0 92.069 41.221 92.069 92.069 0 50.848-41.221 92.069-92.069 92.069-50.848 0-92.069-41.221-92.069-92.069zM92.069 177.25c47.044 0 85.181-38.137 85.181-85.181 0-47.044-38.137-85.181-85.181-85.181-47.044 0-85.181 38.137-85.181 85.181 0 47.044 38.137 85.181 85.181 85.181z" data-fill-palette-color="accent" fill="#4b91f1" stroke="transparent"></path></g><g transform="matrix(1,0,0,1,41.792177177874756,40.47903836261058)"><svg viewBox="0 0 100.55350637827159 103.17978400879994" height="103.17978400879994" width="100.55350637827159"><g><svg xmlns="http://www.w3.org/2000/svg" xmlns:xlink="http://www.w3.org/1999/xlink" version="1.1" x="0" y="0" viewBox="7.606653213500977 5.00059700012207 84.78497314453125 86.99940490722656" enable-background="new 0 0 100 100" xml:space="preserve" height="103.17978400879994" width="100.55350637827159" class="icon-a-0" data-fill-palette-color="accent" id="a-0"><path d="M51 92l3.933-19.724c0 0-0.451-0.458 1.425-0.91 0.741-0.178 1.563-0.375 2.474-0.59 16.493-3.898 24.59-10.496 28.488-12.595 3.898-2.099 8.841-11.098 0.6-15.594-2.121-1.157-4.303-1.226-6.289-0.791-0.177-0.196-0.42-0.372-0.569-0.577-0.429-0.584-1.012-0.982-1.456-1.329-0.43-0.338-0.762-0.543-0.762-0.543l-0.328 0.148c0 0-0.059 0.382-0.078 0.922-0.016 0.273-0.038 0.594-0.029 0.923-0.008 0.336 0.043 0.679 0.002 1.004-0.002 0.217-0.087 0.459-0.126 0.676-2.479 1.258-4.161 2.866-4.161 2.866L58.532 59.981l3.481-31.795c0.104 0.05 0.213 0.086 0.328 0.091 0.267-0.021 0.543-0.243 0.811-0.334 0.54-0.208 0.982-0.485 1.351-0.74 0.359-0.233 0.594-0.43 0.594-0.43l-0.024-0.288c0 0-0.264-0.148-0.655-0.309-0.382-0.213-0.936-0.294-1.401-0.544-0.234-0.104-0.46-0.337-0.664-0.369-0.007 0-0.014 0.003-0.021 0.004l0.697-6.368c0 0-2.399-15.294-15.294-13.795-9.115 1.06-12.683 6.613-14.205 10.944-0.149 0.017-0.3 0.039-0.437 0.034-0.578-0.044-1.108 0.133-1.547 0.235-0.424 0.1-0.719 0.208-0.719 0.208L30.74 16.82c0 0 0.189 0.245 0.492 0.549 0.15 0.158 0.323 0.346 0.518 0.517 0.19 0.187 0.418 0.338 0.572 0.541 0.15 0.165 0.256 0.418 0.393 0.552-0.117 0.551-0.205 1.035-0.274 1.417-0.6 3.299 0.3 29.688 0.3 29.688l-5.998 2.099c-2.999-19.192-7.797-26.089-7.797-26.089s-6.897-7.497-10.796 2.099C4.254 37.79 22.546 58.782 23.746 58.782c1.2 0 10.196 1.799 10.196 1.799l5.692 31.304L51 92z" fill="#4b91f1" data-fill-palette-color="accent"></path></svg></g></svg></g></svg></g></svg></g></svg></g><defs></defs></svg><rect width="395.52" height="118.28424978147537" fill="none" stroke="none" visibility="hidden"></rect></g></svg></g></svg>